<?xml version="1.0" encoding="utf-8"?>
<!-- Generator: Adobe Illustrator 23.0.3, SVG Export Plug-In . SVG Version: 6.00 Build 0)  -->
<svg version="1.1" xmlns="http://www.w3.org/2000/svg" xmlns:xlink="http://www.w3.org/1999/xlink" x="0px" y="0px"
	 viewBox="0 0 109.8 100" style="enable-background:new 0 0 109.8 100;" xml:space="preserve">
<style type="text/css">
	.st0{fill:#59A958;}
</style>
<g id="Layer_2">
</g>
<g id="Layer_1">
	<g>
		<g>
			<path class="st0" d="M52,44.2L16.4,8.6c-3.2-3.2-8.3-3.2-11.5,0s-3.2,8.3,0,11.5l29.9,29.8L4.9,79.8c-3.2,3.2-3.2,8.3,0,11.5
				c1.6,1.6,3.7,2.4,5.7,2.4c2.1,0,4.1-0.8,5.7-2.4L52,55.6C55.1,52.5,55.1,47.3,52,44.2z"/>
			<path class="st0" d="M105.1,44.2L69.5,8.6c-3.2-3.2-8.3-3.2-11.5,0s-3.2,8.3,0,11.5l30,29.8L58,79.8c-3.2,3.2-3.2,8.3,0,11.5
				c1.6,1.6,3.7,2.4,5.7,2.4c2.1,0,4.1-0.8,5.7-2.4l35.7-35.7C108.3,52.5,108.3,47.3,105.1,44.2z"/>
		</g>
	</g>
</g>
</svg>
